<?xml version="1.0" standalone="no"?>
<!DOCTYPE svg PUBLIC "-//W3C//DTD SVG 20010904//EN"
 "http://www.w3.org/TR/2001/REC-SVG-20010904/DTD/svg10.dtd">
<svg version="1.0" xmlns="http://www.w3.org/2000/svg"
 width="1053.000000pt" height="884.000000pt" viewBox="0 0 1053.000000 884.000000"
 preserveAspectRatio="xMidYMid meet">

<g transform="translate(0.000000,884.000000) scale(0.100000,-0.100000)"
fill="#000000" stroke="none">
<path d="M5185 8014 c-418 -31 -682 -82 -1007 -193 -982 -336 -1797 -1116
-2187 -2093 -66 -167 -173 -519 -170 -562 0 -6 29 72 63 174 127 373 248 626
445 925 357 541 851 984 1410 1265 643 322 1327 444 2041 365 706 -78 1396
-382 1950 -860 127 -110 356 -346 456 -470 162 -201 337 -472 447 -691 103
-206 256 -622 288 -784 7 -35 14 -59 16 -53 8 22 -48 262 -95 413 -187 593
-504 1108 -948 1540 -384 374 -798 635 -1299 817 -255 93 -583 168 -850 193
-118 11 -478 20 -560 14z"/>
<path d="M5185 7844 c-744 -60 -1422 -303 -1951 -699 -294 -221 -564 -507
-783 -830 -230 -339 -434 -769 -521 -1099 -58 -221 -110 -532 -110 -663 0 -65
-23 -93 -75 -93 -66 0 -186 -23 -206 -39 -27 -22 -38 -78 -39 -196 0 -59 -5
-106 -11 -112 -7 -7 -23 -8 -47 -2 -20 5 -140 14 -267 19 -126 5 -268 17 -315
25 -165 31 -168 31 -180 0 -14 -36 9 -188 49 -321 63 -212 65 -327 6 -534 -43
-154 -69 -284 -61 -316 10 -39 32 -43 151 -33 119 11 296 6 555 -17 267 -23
475 -14 609 25 21 7 40 7 51 1 10 -5 41 -65 70 -132 225 -530 649 -1061 1145
-1435 196 -148 495 -320 720 -413 437 -181 921 -274 1425 -273 350 0 571 27
874 109 505 135 982 386 1396 733 99 83 323 305 403 400 219 258 400 546 538
856 53 119 71 151 88 153 12 2 56 -4 99 -13 119 -25 320 -30 537 -11 274 23
445 28 564 19 140 -12 146 -8 144 82 -1 43 -14 117 -33 190 -52 193 -60 234
-60 341 0 85 5 119 35 224 52 185 75 331 59 374 -8 21 -28 20 -151 -4 -66 -13
-184 -23 -330 -30 -126 -6 -251 -13 -279 -16 l-51 -6 -7 126 c-8 138 -16 175
-46 194 -11 6 -63 17 -117 23 -54 6 -108 15 -120 19 -25 10 -27 18 -43 205
-35 398 -178 869 -382 1255 -447 847 -1200 1480 -2093 1759 -222 69 -390 105
-640 137 -117 14 -499 26 -600 18z m415 -94 c490 -29 899 -136 1310 -346 313
-159 564 -342 844 -614 535 -521 841 -1051 996 -1730 41 -178 67 -341 76 -472
l7 -108 -565 0 c-466 0 -568 2 -577 14 -6 7 -16 51 -21 97 -50 407 -220 795
-509 1158 -301 379 -717 650 -1178 767 -503 127 -981 105 -1441 -67 -306 -115
-554 -273 -796 -509 -225 -219 -381 -444 -508 -730 -78 -175 -146 -406 -172
-589 -8 -56 -20 -109 -27 -117 -9 -11 -102 -13 -568 -8 -306 4 -560 10 -564
14 -11 10 7 185 34 340 195 1126 914 2089 1914 2565 460 218 890 314 1540 343
17 1 109 -3 205 -8z m-55 -1240 c451 -42 886 -218 1241 -504 44 -36 134 -121
200 -189 301 -314 500 -700 584 -1135 35 -181 28 -202 -64 -202 l-45 0 -6 58
c-32 279 -172 654 -334 897 -300 450 -751 770 -1263 895 -307 75 -671 81 -968
15 -559 -124 -1045 -468 -1350 -955 -135 -216 -242 -495 -285 -743 -14 -82
-25 -153 -25 -158 0 -6 -19 -9 -42 -7 -39 3 -43 6 -46 32 -9 73 76 424 143
591 207 520 560 902 1075 1165 167 85 315 141 474 179 252 62 484 82 711 61z
m78 -296 c195 -27 378 -82 559 -167 494 -234 861 -651 1032 -1176 94 -286 119
-614 71 -921 -61 -393 -261 -785 -547 -1070 -362 -362 -819 -560 -1328 -577
-329 -11 -614 48 -908 188 -321 152 -601 395 -795 688 -157 240 -247 469 -304
781 -25 133 -24 485 1 620 98 534 354 957 766 1264 417 312 929 442 1453 370z
m-2655 -1790 l252 -7 0 -89 c0 -77 -2 -88 -17 -88 -17 -1 -17 -1 0 -11 12 -7
17 -23 17 -59 l0 -50 -40 0 c-53 0 -51 -18 3 -22 41 -3 42 -4 48 -46 6 -51 9
-49 -86 -60 l-70 -8 70 -8 c89 -9 99 -15 103 -58 l3 -36 -107 -7 c-125 -8
-119 -20 14 -29 52 -3 98 -8 103 -12 5 -3 9 -21 9 -40 l0 -34 -77 -1 c-43 0
-98 -4 -123 -8 -44 -7 -43 -7 35 -14 191 -18 184 -16 194 -51 4 -17 6 -34 4
-38 -2 -5 -25 -8 -51 -9 -26 0 -65 -3 -87 -8 l-40 -7 32 -7 c18 -3 62 -9 98
-13 60 -6 67 -10 81 -36 8 -16 12 -32 10 -37 -3 -5 -42 -12 -86 -15 -44 -4
-78 -11 -75 -16 3 -5 42 -12 87 -16 85 -7 118 -25 118 -63 0 -17 -11 -20 -95
-26 -52 -4 -95 -11 -95 -15 0 -4 51 -12 112 -19 101 -11 127 -20 128 -42 0 -4
-168 -5 -372 -2 -442 6 -937 -9 -1246 -38 -123 -11 -231 -18 -239 -14 -36 13
13 29 184 60 176 32 177 32 118 38 -33 4 -113 9 -178 13 -184 10 -171 23 68
70 l150 29 -60 6 c-33 4 -106 7 -163 8 -83 1 -104 4 -109 16 -3 9 -3 18 0 21
2 3 60 16 128 30 148 30 159 33 159 45 0 5 -62 9 -145 9 -136 0 -145 1 -145
19 0 15 11 22 52 31 87 18 160 41 153 48 -4 4 -52 9 -108 12 -92 4 -102 7
-102 24 0 15 17 24 85 43 105 30 121 43 53 43 -79 0 -144 12 -150 27 -3 8 -4
16 -1 18 2 3 55 18 117 34 62 16 115 31 117 34 5 4 -37 9 -196 20 -27 1 -35 6
-35 21 0 16 14 22 85 37 47 9 110 24 140 32 l55 14 -60 6 c-33 4 -99 9 -147
13 -137 10 -116 26 83 65 193 38 192 43 -10 54 -121 7 -164 16 -149 30 3 4 84
20 179 37 96 17 178 34 182 38 4 4 -47 10 -115 14 -214 12 -249 17 -246 35 4
18 17 20 233 46 299 35 454 37 1163 19z m5692 6 c80 -5 223 -19 318 -31 147
-19 172 -25 172 -39 0 -19 -20 -22 -220 -36 -85 -6 -168 -21 -130 -23 8 -1 91
-14 183 -30 237 -41 238 -47 6 -67 -89 -7 -163 -15 -165 -17 -2 -2 51 -13 118
-26 190 -34 218 -42 218 -55 0 -9 -23 -15 -72 -19 -40 -4 -111 -9 -158 -13
l-85 -7 135 -28 c185 -39 180 -38 180 -53 0 -17 -26 -23 -142 -31 -49 -4 -88
-10 -88 -14 0 -4 48 -19 108 -33 89 -21 107 -28 110 -45 3 -17 -4 -21 -50 -26
-29 -4 -75 -7 -101 -7 -27 0 -46 -4 -43 -8 2 -4 46 -19 96 -32 131 -35 136
-69 10 -71 -36 0 -85 -4 -110 -8 l-45 -7 115 -30 c78 -21 116 -36 118 -46 2
-13 -17 -17 -116 -22 -65 -4 -125 -12 -133 -17 -8 -5 -11 -9 -8 -9 28 -1 244
-51 252 -59 25 -25 -9 -31 -169 -31 -91 0 -163 -4 -160 -9 3 -4 80 -23 171
-41 104 -21 164 -37 162 -44 -2 -7 -50 -14 -118 -19 -63 -4 -141 -11 -174 -15
l-60 -7 160 -28 c206 -37 205 -36 205 -55 0 -12 -11 -14 -67 -9 -501 47 -909
62 -1440 53 -216 -3 -393 -4 -393 -2 0 22 17 36 42 36 50 0 218 23 212 29 -3
3 -49 10 -102 16 -73 7 -97 14 -100 25 -6 36 21 49 128 60 58 7 109 16 114 20
4 5 -27 11 -70 15 -111 9 -124 12 -124 34 0 35 26 47 134 60 59 7 105 16 102
18 -3 3 -49 10 -102 14 -53 5 -99 10 -101 13 -3 2 1 17 9 33 13 27 17 28 113
36 55 5 107 11 115 15 19 7 -67 20 -142 21 -56 1 -58 2 -58 29 0 15 4 32 8 38
4 7 50 15 107 18 55 4 114 10 130 14 25 5 18 8 -35 13 -36 4 -94 7 -129 8
l-64 1 6 36 c3 20 8 38 10 40 2 2 42 9 88 15 46 5 85 12 87 13 1 2 -36 7 -83
11 l-85 7 0 43 0 44 48 6 c26 3 61 10 77 14 24 7 16 9 -41 10 -39 1 -73 3 -75
5 -2 3 -3 25 -1 49 4 43 6 46 40 53 l37 8 -35 5 -35 6 -2 65 c-1 36 -3 74 -5
85 -4 23 -31 22 502 34 501 11 531 11 690 1z m-7835 -336 c33 -8 177 -21 325
-29 309 -17 342 -21 338 -44 -3 -14 -31 -17 -223 -21 l-220 -5 170 -29 c94
-15 196 -33 228 -38 34 -6 57 -15 57 -23 0 -10 -45 -15 -186 -20 -102 -4 -182
-11 -177 -15 4 -4 82 -17 173 -30 91 -13 173 -27 184 -32 38 -20 -6 -31 -161
-41 -87 -5 -161 -12 -165 -16 -4 -3 71 -17 167 -30 151 -20 175 -26 175 -41 0
-15 -18 -19 -127 -30 -70 -7 -136 -16 -147 -20 -13 -4 34 -14 125 -26 129 -18
144 -22 144 -39 0 -17 -14 -21 -127 -35 -70 -9 -130 -19 -133 -22 -4 -3 18 -9
47 -12 264 -33 267 -41 23 -81 -126 -21 -128 -22 -80 -28 28 -4 96 -10 152
-14 56 -3 108 -10 115 -14 39 -24 -57 -40 -312 -49 -33 -1 -33 -2 -10 -10 14
-5 91 -18 173 -31 213 -32 196 -56 -43 -61 -182 -3 -180 -10 15 -46 99 -18
183 -36 188 -41 9 -9 -161 -21 -305 -21 -54 0 -98 -4 -98 -9 0 -9 140 -33 300
-51 106 -12 480 -15 523 -5 39 10 33 -3 -10 -22 -61 -25 -328 -29 -602 -8
-150 11 -292 16 -406 13 l-176 -4 7 40 c3 23 26 120 50 216 39 153 44 188 44
284 0 95 -5 129 -39 260 -59 225 -70 297 -43 296 4 -1 34 -7 67 -16z m9148
-45 c-3 -50 -14 -99 -71 -314 -25 -92 -21 -297 8 -400 43 -160 70 -271 70
-295 l0 -26 -161 4 c-96 3 -259 -3 -406 -13 -269 -19 -533 -16 -616 7 -49 13
-66 35 -24 31 96 -11 430 -14 522 -4 159 16 325 43 319 53 -3 4 -102 8 -220 8
-139 0 -214 4 -214 10 0 18 40 28 225 55 99 15 191 30 205 33 14 4 -63 9 -170
12 -186 5 -232 12 -213 31 5 5 76 18 158 30 203 28 215 35 70 43 -250 14 -242
13 -232 39 4 11 36 16 124 22 65 4 138 10 163 14 l45 7 -45 7 c-25 3 -99 13
-164 22 -66 9 -123 18 -128 21 -24 15 5 23 132 40 78 10 135 21 128 24 -7 4
-60 13 -118 19 -132 15 -150 20 -150 37 0 16 8 18 160 40 63 9 118 20 123 23
4 4 -55 13 -130 20 -135 12 -167 21 -147 40 5 5 82 20 172 32 89 12 162 26
162 29 0 4 -55 10 -122 14 -166 9 -208 15 -208 32 0 17 7 18 195 45 83 11 154
24 158 29 5 4 -71 11 -167 15 -133 5 -176 10 -176 20 0 16 -1 16 250 57 l205
33 -224 5 c-166 4 -225 8 -228 17 -9 25 55 35 277 44 222 9 347 21 405 38 54
17 60 11 58 -50z m-6668 -864 c17 -25 55 -86 85 -136 240 -396 605 -727 997
-904 302 -136 595 -202 933 -212 387 -12 703 54 1025 212 304 149 631 409 836
665 67 84 173 246 224 343 l40 76 605 3 c401 2 609 0 617 -7 18 -15 -73 -259
-170 -456 -245 -501 -589 -924 -1027 -1260 -507 -391 -1185 -652 -1810 -699
-664 -49 -1340 88 -1920 391 -678 355 -1267 995 -1568 1704 -73 172 -117 304
-106 315 16 15 41 15 628 13 l581 -2 30 -46z m176 46 c4 -1 26 -34 50 -73 153
-255 408 -515 665 -680 248 -159 499 -256 803 -310 168 -29 501 -32 661 -5
460 77 841 265 1158 571 118 113 285 324 357 449 l27 47 69 0 c38 0 69 -3 69
-6 0 -11 -91 -157 -143 -229 -216 -299 -496 -537 -834 -708 -209 -105 -389
-167 -608 -208 -143 -27 -485 -37 -647 -19 -593 65 -1180 411 -1560 917 -58
79 -158 234 -158 248 0 8 47 11 91 6z m-1522 -15 c15 -18 41 -105 33 -109 -16
-8 -301 13 -342 25 -36 11 -46 19 -48 39 l-3 26 158 15 c87 8 165 16 174 17 9
0 22 -5 28 -13z m7051 -9 c96 -10 115 -15 118 -30 8 -40 -112 -63 -373 -72
-15 0 -9 62 9 90 14 22 23 25 74 24 31 0 109 -6 172 -12z"/>
<path d="M5324 7588 c-3 -5 -10 -111 -15 -236 -5 -125 -13 -299 -19 -387 -15
-240 -21 -215 54 -215 l63 0 9 178 9 177 45 -2 c33 -2 50 -8 64 -25 17 -21 18
-35 12 -175 -4 -83 -4 -153 1 -156 4 -3 36 -8 69 -12 l61 -7 4 129 c5 223 -2
261 -51 296 -20 14 -20 14 5 31 37 24 62 82 70 162 13 135 -32 212 -135 232
-72 14 -240 21 -246 10z m226 -138 c35 -35 25 -186 -14 -212 -6 -4 -32 -8 -58
-8 l-46 0 4 98 c7 143 7 142 54 142 27 0 47 -7 60 -20z"/>
<path d="M4718 7532 c-68 -11 -88 -18 -88 -31 0 -9 13 -99 30 -201 84 -511
101 -614 103 -617 7 -6 238 38 270 52 44 18 84 65 97 116 12 45 -9 199 -35
249 -16 32 -61 70 -81 70 -9 0 -6 12 11 36 33 48 39 88 25 164 -15 82 -43 136
-83 160 -39 24 -120 25 -249 2z m169 -110 c17 -11 30 -50 38 -114 6 -49 4 -59
-13 -76 -25 -25 -91 -40 -101 -23 -4 6 -13 55 -20 108 -11 79 -10 97 1 104 16
11 79 11 95 1z m72 -351 c27 -27 43 -91 39 -159 -3 -63 -15 -74 -89 -85 l-36
-5 -17 101 c-10 56 -20 114 -23 129 -4 22 -1 27 18 31 56 10 90 6 108 -12z"/>
<path d="M6075 7424 c-19 -42 -35 -78 -35 -80 0 -1 -39 -90 -86 -196 -88 -196
-184 -417 -184 -424 0 -2 19 -8 43 -14 23 -6 49 -13 57 -16 11 -3 24 17 45 71
17 41 36 75 43 75 7 0 42 -7 78 -16 62 -16 65 -18 60 -43 -3 -14 -8 -52 -12
-83 l-6 -57 38 -10 c92 -24 94 -24 94 -6 0 17 14 175 51 583 14 147 19 246 13
251 -9 8 -132 41 -154 41 -6 0 -26 -34 -45 -76z m60 -291 c-9 -98 -21 -185
-26 -195 -8 -15 -13 -15 -56 -2 -25 8 -48 16 -51 19 -2 2 11 44 31 92 75 187
111 272 115 269 2 -2 -4 -84 -13 -183z"/>
<path d="M4195 7384 c-77 -29 -150 -58 -161 -63 l-22 -10 32 -83 c47 -120 126
-328 200 -523 36 -93 71 -171 78 -173 11 -2 314 111 325 121 3 4 -34 97 -41
105 -2 1 -47 -13 -100 -33 -53 -20 -101 -35 -107 -33 -6 2 -28 48 -49 103 -21
55 -41 107 -44 116 -6 13 9 22 71 44 43 15 82 31 86 35 8 7 -18 85 -33 103 -4
4 -42 -6 -85 -23 -44 -16 -82 -27 -86 -22 -13 13 -80 195 -74 201 3 3 50 22
103 42 84 31 97 39 95 58 -4 30 -30 91 -40 90 -4 0 -71 -25 -148 -55z"/>
<path d="M6612 7188 c-192 -368 -311 -610 -305 -620 4 -8 95 -50 98 -46 1 2
62 121 135 266 73 144 134 261 136 259 4 -3 -57 -289 -95 -450 -17 -71 -31
-135 -31 -142 0 -8 27 -28 59 -45 l60 -30 77 153 c42 83 128 252 190 374 63
122 114 224 114 226 0 8 -100 50 -106 45 -3 -4 -55 -102 -115 -220 -61 -117
-108 -200 -104 -185 3 15 15 74 26 130 11 56 31 145 44 197 12 52 26 107 29
122 6 26 2 30 -64 63 -38 19 -71 35 -74 35 -2 0 -36 -60 -74 -132z"/>
<path d="M3533 7052 c-23 -15 -45 -30 -49 -34 -4 -4 11 -36 34 -70 22 -35 77
-124 122 -198 234 -383 276 -450 282 -450 15 0 288 172 288 182 0 5 -12 29
-26 54 l-26 44 -37 -22 c-20 -12 -60 -37 -90 -56 -44 -28 -56 -31 -67 -20 -12
12 -207 325 -282 453 -49 84 -92 145 -100 144 -4 0 -26 -12 -49 -27z"/>
<path d="M7262 6898 c-27 -35 -145 -179 -261 -321 -116 -142 -212 -262 -214
-266 -4 -17 197 -171 238 -182 53 -15 105 2 156 48 46 42 286 331 336 406 40
59 45 132 14 183 -16 26 -170 165 -208 187 -7 4 -31 -18 -61 -55z m123 -149
c55 -49 50 -69 -55 -194 -36 -44 -106 -128 -153 -187 -48 -59 -97 -110 -107
-113 -20 -6 -76 21 -99 49 -9 11 13 44 106 158 65 80 150 184 188 231 39 47
73 86 77 87 4 0 23 -14 43 -31z"/>
<path d="M3122 6733 c-72 -65 -130 -121 -129 -125 3 -11 558 -618 565 -618 10
0 262 230 262 239 0 4 -18 24 -39 45 l-40 39 -81 -74 c-45 -41 -83 -74 -85
-74 -2 0 -43 43 -90 95 l-87 95 69 62 68 62 -42 42 -41 42 -68 -59 -67 -59
-73 80 c-41 44 -74 82 -74 85 0 3 36 37 80 75 43 39 79 75 80 80 0 6 -17 28
-39 49 l-38 37 -131 -118z"/>
<path d="M7735 6413 c-16 -9 -125 -91 -240 -183 -229 -183 -255 -213 -255
-294 0 -85 73 -184 152 -208 51 -15 115 1 172 42 118 88 397 319 415 346 54
78 47 162 -21 239 -22 25 -53 52 -69 60 -37 19 -116 18 -154 -2z m138 -145
c36 -48 22 -65 -191 -236 -249 -200 -249 -200 -291 -161 -17 16 -21 30 -19 57
3 35 15 46 212 205 179 143 214 168 239 165 18 -2 38 -13 50 -30z"/>
<path d="M2755 6321 c-43 -19 -85 -62 -111 -114 -22 -42 -15 -134 14 -174 25
-35 415 -329 479 -362 24 -12 61 -21 86 -21 123 0 230 169 174 276 -17 31 -57
71 -126 124 l-44 34 -29 -34 c-53 -63 -53 -62 18 -114 74 -55 87 -84 57 -124
-31 -42 -60 -39 -135 15 -190 136 -352 259 -369 281 -24 31 -24 43 2 76 29 36
66 34 122 -9 25 -19 50 -35 55 -35 14 0 75 91 66 99 -52 44 -103 76 -141 87
-59 18 -69 17 -118 -5z"/>
<path d="M5095 6165 c-348 -53 -618 -163 -885 -358 -126 -92 -329 -297 -418
-424 -410 -576 -473 -1311 -167 -1951 240 -501 691 -872 1238 -1017 189 -50
431 -72 622 -55 262 22 476 80 702 190 531 259 905 742 1033 1335 52 239 45
618 -16 835 -108 388 -272 672 -536 926 -274 264 -582 422 -986 505 -129 27
-456 35 -587 14z m436 -25 c551 -55 1060 -358 1368 -813 217 -322 323 -668
323 -1057 0 -334 -72 -618 -230 -908 -89 -164 -195 -303 -333 -437 -174 -169
-307 -262 -514 -361 -626 -297 -1368 -222 -1925 195 -404 302 -665 745 -739
1256 -48 330 2 687 140 1004 269 617 846 1042 1519 1120 108 12 272 13 391 1z"/>
<path d="M5734 5426 c-84 -38 -84 -116 1 -195 42 -39 42 -65 1 -69 -23 -3 -27
-7 -22 -25 3 -12 6 -25 6 -29 0 -5 20 -8 45 -8 35 0 52 6 70 25 30 29 31 53 4
106 -22 44 -14 69 23 69 17 0 18 5 12 63 -4 34 -8 64 -10 66 -10 12 -103 10
-130 -3z"/>
<path d="M4544 5383 c3 -27 8 -101 12 -166 l6 -118 97 3 96 3 3 28 c3 26 1 27
-38 27 l-42 0 7 135 7 135 -77 0 -77 0 6 -47z"/>
<path d="M4835 5418 c-2 -7 -9 -42 -15 -78 -6 -36 -20 -99 -31 -142 -10 -42
-19 -81 -19 -87 0 -18 48 -12 60 7 9 16 11 16 20 0 9 -15 15 -15 37 -5 21 9
27 9 31 -1 2 -8 25 -12 64 -12 45 0 59 3 55 13 -6 15 -42 167 -60 252 l-12 60
-63 3 c-44 2 -64 -1 -67 -10z m63 -233 c-2 -12 -12 -21 -25 -23 -26 -4 -29 11
-12 55 10 27 11 28 25 8 8 -11 13 -29 12 -40z"/>
<path d="M5224 5416 c-61 -27 -102 -111 -88 -181 16 -86 108 -155 190 -142 43
7 39 4 48 40 7 28 6 29 -23 22 -24 -5 -35 -1 -56 19 -49 49 -17 126 54 126
l32 0 -3 63 -3 62 -60 2 c-34 2 -73 -3 -91 -11z"/>
<path d="M5455 5408 c-2 -13 -12 -61 -20 -108 -14 -76 -26 -131 -41 -182 -4
-14 1 -18 25 -18 18 0 34 7 40 18 9 16 10 16 16 0 6 -14 11 -15 31 -6 18 9 28
8 36 0 7 -7 36 -12 66 -12 51 0 54 1 48 23 -6 24 -55 249 -62 285 -4 20 -10
22 -69 22 -59 0 -65 -2 -70 -22z m64 -200 c12 -34 3 -48 -31 -48 -21 0 -22 6
-7 49 14 39 24 39 38 -1z"/>
<path d="M5955 5418 c-2 -7 -9 -42 -15 -78 -6 -36 -20 -99 -31 -142 -10 -42
-19 -81 -19 -87 0 -18 48 -12 60 7 9 16 11 16 20 0 9 -15 15 -15 37 -5 21 9
27 9 31 -1 5 -17 112 -17 112 1 0 14 -58 286 -65 305 -3 8 -26 12 -65 12 -40
0 -62 -4 -65 -12z m63 -233 c-2 -13 -12 -21 -30 -23 -33 -4 -33 -3 -12 46 15
36 16 36 30 17 8 -11 13 -29 12 -40z"/>
<path d="M4850 4813 c0 -28 3 -85 7 -128 l6 -77 63 4 c77 5 113 28 132 83 10
32 10 46 0 78 -19 59 -55 81 -138 85 l-70 4 0 -49z m139 -67 c18 -22 9 -67
-16 -84 -23 -14 -23 -14 -23 42 0 58 14 73 39 42z"/>
<path d="M5084 4783 c3 -42 6 -98 6 -125 l0 -48 63 0 c62 0 87 11 87 37 0 9
-10 13 -27 11 -19 -2 -28 2 -31 15 -3 12 3 17 21 17 35 0 44 38 11 42 -32 4
-32 22 1 26 23 3 25 7 25 53 l0 49 -81 0 -82 0 7 -77z"/>
<path d="M5335 4743 c4 -65 10 -122 15 -126 4 -4 36 -7 71 -5 56 3 64 5 64 23
0 16 -6 19 -27 17 l-28 -3 0 105 0 106 -51 0 -51 0 7 -117z"/>
<path d="M5545 4848 c-3 -11 -25 -121 -42 -210 -4 -21 -1 -28 10 -28 9 0 20 7
25 16 6 11 11 13 16 5 4 -6 18 -8 32 -5 14 4 24 2 24 -5 0 -6 17 -11 40 -11
49 0 49 -2 13 142 l-26 108 -44 0 c-26 0 -45 -5 -48 -12z m50 -165 c5 -20 3
-23 -19 -23 -30 0 -29 0 -16 36 11 29 23 24 35 -13z"/>
<path d="M5729 4842 c-34 -28 -30 -75 9 -115 37 -38 41 -62 11 -70 -17 -5 -19
-9 -9 -26 23 -44 107 -11 96 38 -19 88 -19 91 -2 91 13 0 16 11 16 50 l0 50
-49 0 c-33 0 -56 -6 -72 -18z"/>
<path d="M6891 4400 c-68 -16 -111 -66 -111 -128 0 -44 21 -83 68 -123 71 -62
78 -109 16 -109 -37 0 -41 -10 -24 -54 8 -23 15 -26 61 -26 58 0 102 21 118
57 16 36 14 59 -14 114 -30 58 -26 86 13 91 l27 3 -3 80 c-2 44 -7 83 -10 86
-12 12 -106 18 -141 9z"/>
<path d="M4488 4390 c-52 -16 -98 -52 -126 -98 -71 -121 -2 -297 130 -333 38
-10 132 -9 142 2 2 2 7 21 11 42 7 37 7 38 -19 31 -64 -16 -116 25 -116 91 0
57 39 95 98 95 l43 0 -3 88 -3 87 -65 2 c-36 1 -77 -2 -92 -7z"/>
<path d="M6032 4392 c-11 -7 -11 -47 -2 -218 7 -115 13 -211 15 -213 2 -2 47
-3 99 -3 123 1 170 20 217 88 56 82 52 203 -8 275 -46 54 -96 73 -208 76 -55
2 -106 0 -113 -5z m225 -187 c56 -39 26 -163 -39 -165 -16 0 -18 11 -18 90 0
80 2 90 18 90 10 0 27 -7 39 -15z"/>
<path d="M3647 4313 c2 -43 8 -139 11 -213 l7 -135 119 -3 c66 -1 123 1 127 5
4 4 10 23 14 41 l7 34 -54 -4 -53 -3 -3 33 c-3 32 -3 32 41 32 38 0 46 3 51
23 11 43 8 47 -39 47 -44 0 -45 1 -45 31 0 30 0 30 45 23 52 -7 51 -9 59 94
l5 72 -149 0 -148 0 5 -77z"/>
<path d="M3975 4258 c4 -73 10 -169 13 -213 l7 -80 40 0 40 0 5 72 5 72 101
-73 101 -74 7 156 c4 87 9 183 13 215 l6 57 -52 0 -51 0 0 -46 0 -46 -52 46
c-52 45 -54 46 -122 46 l-68 0 7 -132z"/>
<path d="M4686 4318 c3 -40 9 -136 12 -213 l7 -140 77 -3 77 -3 3 68 c3 65 4
67 17 41 11 -22 19 -26 37 -22 21 5 23 2 26 -38 l3 -43 67 -3 c63 -3 68 -2 72
20 3 13 8 110 11 216 l6 192 -90 0 -90 0 4 -65 c3 -36 7 -94 10 -130 5 -70 -2
-81 -42 -70 l-26 6 6 130 6 129 -99 0 -100 0 6 -72z"/>
<path d="M5134 4278 c4 -62 9 -159 12 -215 l6 -103 73 0 c41 0 76 3 78 8 3 4
8 100 12 215 l7 207 -97 0 -97 0 6 -112z"/>
<path d="M5353 4343 c4 -27 9 -123 13 -215 l7 -168 124 0 c90 0 125 3 127 13
3 6 7 25 11 40 l6 29 -53 -4 -53 -3 4 178 3 177 -97 0 -98 0 6 -47z"/>
<path d="M5730 4333 c-6 -32 -27 -121 -45 -199 -19 -77 -35 -148 -35 -157 0
-27 70 -23 77 3 5 19 23 29 23 13 0 -5 4 -14 9 -22 7 -11 14 -10 41 5 30 18
32 18 44 2 10 -14 28 -18 79 -18 36 0 68 4 71 9 3 5 -12 83 -34 172 -21 90
-42 183 -46 207 l-7 42 -83 0 -83 0 -11 -57z m85 -239 c15 -44 8 -54 -37 -54
-33 0 -35 12 -12 70 19 46 28 43 49 -16z"/>
<path d="M6481 4273 c-20 -105 -53 -247 -67 -295 -4 -15 1 -18 34 -18 35 0 42
4 50 28 l9 27 13 -27 c15 -32 22 -34 40 -13 7 8 20 15 30 15 10 0 20 -7 24
-15 4 -11 22 -15 76 -15 61 0 70 2 70 19 0 10 -18 96 -40 192 -22 96 -42 184
-45 197 -5 21 -11 22 -88 22 l-82 0 -24 -117z m95 -169 c15 -39 15 -47 3 -55
-27 -17 -59 -11 -59 11 0 22 26 90 34 90 2 0 12 -21 22 -46z"/>
<path d="M4877 3883 c-3 -5 -3 -37 0 -71 l6 -62 33 0 c63 0 99 74 55 114 -21
19 -86 33 -94 19z m76 -67 c3 -8 0 -22 -8 -33 -13 -17 -14 -17 -20 0 -8 20 0
47 14 47 5 0 11 -6 14 -14z"/>
<path d="M5005 3880 c-3 -4 -2 -35 1 -69 l7 -61 33 0 c19 0 34 5 34 10 0 6 -4
10 -10 10 -5 0 -10 7 -10 15 0 8 5 15 10 15 6 0 10 5 10 11 0 5 -4 7 -10 4 -5
-3 -10 1 -10 9 0 9 7 16 15 16 26 0 18 40 -7 41 -13 0 -31 2 -40 4 -10 2 -20
0 -23 -5z"/>
<path d="M5116 3874 c-21 -20 -20 -31 4 -62 14 -17 17 -29 10 -36 -15 -15 -12
-26 9 -26 29 0 45 25 31 49 -8 15 -7 26 1 39 26 41 -20 71 -55 36z"/>
<path d="M5200 3821 l0 -71 35 0 c43 0 75 29 75 68 0 36 -27 61 -74 69 l-36 6
0 -72z m77 -7 c3 -8 -2 -23 -11 -32 -15 -15 -16 -14 -16 16 0 33 16 43 27 16z"/>
<path d="M5329 3879 c-5 -3 -6 -33 -3 -67 l7 -62 33 0 c19 0 34 5 34 10 0 6
-4 10 -10 10 -14 0 -12 27 3 33 10 4 10 6 0 6 -7 1 -13 8 -13 16 0 8 6 14 13
13 7 -2 12 7 12 22 0 22 -4 25 -33 25 -19 0 -38 -3 -43 -6z"/>
<path d="M5467 3883 c-12 -12 -7 -36 9 -48 16 -11 16 -14 0 -45 -20 -42 -21
-40 14 -40 29 0 41 15 19 22 -8 3 -7 14 5 35 21 42 20 60 -3 73 -23 12 -35 13
-44 3z"/>
<path d="M5560 3870 c-24 -24 -26 -67 -4 -98 30 -43 70 -22 81 41 4 27 1 39
-16 56 -26 26 -36 26 -61 1z m48 -68 c2 -15 -2 -22 -12 -22 -11 0 -16 9 -16
26 0 31 23 28 28 -4z"/>
<path d="M5669 3869 c-17 -14 -20 -22 -11 -25 7 -4 12 -24 12 -50 0 -31 4 -44
14 -44 18 0 22 13 25 83 3 62 -4 68 -40 36z"/>
<path d="M5756 3859 c-8 -16 -17 -42 -21 -59 -6 -26 -4 -30 14 -30 12 0 21 -4
21 -10 0 -5 7 -10 15 -10 20 0 35 31 24 51 -4 9 -7 30 -5 47 6 43 -28 51 -48
11z m11 -61 c-3 -8 -6 -5 -6 6 -1 11 2 17 5 13 3 -3 4 -12 1 -19z"/>
<path d="M3650 3820 c0 -7 205 -10 595 -10 390 0 595 3 595 10 0 7 -205 10
-595 10 -390 0 -595 -3 -595 -10z"/>
<path d="M5860 3820 c0 -7 203 -10 590 -10 387 0 590 3 590 10 0 7 -203 10
-590 10 -387 0 -590 -3 -590 -10z"/>
<path d="M6605 3678 c-76 -144 -162 -230 -279 -284 -79 -36 -152 -32 -224 15
-54 34 -163 61 -197 47 -15 -5 -11 -11 27 -35 68 -43 85 -105 48 -174 -11 -20
-20 -41 -20 -47 0 -5 24 -10 54 -10 67 0 165 -30 217 -65 24 -18 48 -47 65
-81 22 -46 26 -64 22 -119 -2 -36 -1 -65 2 -65 4 0 17 18 29 41 35 62 39 148
11 257 l-24 88 23 46 c13 28 48 69 87 103 88 78 147 163 174 253 12 40 20 75
18 78 -3 2 -17 -20 -33 -48z"/>
<path d="M5685 3349 c-27 -4 -111 -24 -185 -44 -552 -146 -575 -150 -841 -150
-233 0 -237 -3 -81 -57 233 -79 507 -87 801 -22 204 46 456 147 481 194 39 72
-31 103 -175 79z"/>
<path d="M4085 3278 c4 -13 32 -66 62 -118 97 -165 280 -329 478 -428 337
-168 872 -194 1274 -62 176 57 276 124 307 205 45 120 -46 214 -218 223 -104
5 -176 -6 -370 -59 -325 -87 -530 -115 -736 -98 -279 22 -512 119 -724 301
-37 32 -70 58 -73 58 -4 0 -3 -10 0 -22z"/>
<path d="M2145 4252 l-20 -57 -65 -5 -64 -5 29 -19 c17 -10 40 -27 52 -38 l21
-20 -19 -56 c-10 -30 -18 -57 -16 -58 2 -2 25 12 51 31 53 38 58 37 124 -12
37 -28 38 -27 15 45 l-18 55 29 21 c77 56 77 55 15 56 -63 0 -70 6 -89 65 -19
60 -24 60 -45 -3z"/>
<path d="M2810 4274 c-24 -75 -34 -84 -98 -85 l-57 0 29 -22 c74 -57 70 -50
58 -99 -7 -25 -15 -54 -19 -64 -5 -14 4 -11 37 14 54 39 74 40 124 2 22 -17
41 -28 43 -27 2 2 -4 23 -12 47 -23 65 -19 76 33 112 l47 33 -63 3 c-68 3 -62
-2 -95 86 l-14 40 -13 -40z"/>
<path d="M2450 3973 c-16 -67 -24 -73 -94 -73 l-61 0 50 -35 c28 -20 51 -39
53 -43 1 -5 -7 -34 -17 -65 -11 -31 -18 -57 -15 -57 2 0 23 14 46 30 45 33 64
37 93 17 11 -8 32 -22 47 -31 l28 -18 -20 56 c-10 31 -17 62 -14 69 3 7 26 26
52 42 l47 30 -65 5 -65 5 -20 58 c-11 31 -23 57 -26 57 -4 0 -12 -21 -19 -47z"/>
<path d="M2146 3687 c-18 -61 -26 -67 -94 -67 l-47 -1 47 -40 47 -40 -20 -56
c-10 -31 -19 -58 -19 -60 0 -2 24 13 54 33 l55 36 46 -32 c26 -18 49 -30 51
-27 3 3 -3 29 -13 57 l-18 53 29 21 c77 57 77 55 15 56 -63 0 -70 6 -89 65
-19 61 -27 62 -44 2z"/>
<path d="M2810 3703 c-24 -74 -34 -83 -98 -83 l-57 -1 27 -20 c14 -11 37 -28
49 -38 25 -20 25 -11 -8 -124 -4 -14 7 -11 47 17 56 39 60 38 122 -7 15 -12
30 -18 32 -16 3 3 -1 23 -9 44 -22 61 -19 71 31 110 l47 35 -54 0 c-30 0 -59
4 -65 8 -6 4 -19 31 -28 60 -10 28 -19 52 -21 52 -2 0 -9 -17 -15 -37z"/>
<path d="M7870 4283 c-24 -74 -34 -83 -98 -83 l-57 -1 27 -20 c77 -57 73 -50
56 -113 -9 -31 -15 -56 -13 -56 3 0 25 13 51 30 51 32 57 31 123 -18 30 -22
34 -23 27 -6 -4 10 -13 39 -19 63 -13 47 -8 54 63 103 25 17 25 17 -30 18 -30
0 -60 4 -66 8 -6 4 -19 31 -28 60 -10 28 -19 52 -21 52 -2 0 -9 -17 -15 -37z"/>
<path d="M8520 4270 c-14 -59 -30 -70 -97 -70 -53 -1 -53 0 22 -55 l28 -21
-17 -52 c-10 -30 -16 -56 -13 -58 3 -3 25 9 50 27 l46 32 43 -29 c23 -16 48
-32 55 -37 8 -5 5 13 -7 49 -14 41 -17 61 -9 75 5 10 13 19 18 19 5 0 21 10
37 23 l29 22 -60 5 -60 5 -20 58 c-11 31 -23 57 -26 57 -4 0 -12 -23 -19 -50z"/>
<path d="M8167 3977 c-19 -61 -28 -67 -95 -65 -24 0 -45 -2 -47 -4 -3 -2 15
-19 40 -36 47 -33 52 -48 34 -100 -16 -48 -8 -55 33 -27 46 31 64 31 111 -1
21 -14 41 -24 43 -21 2 2 -3 23 -11 47 -22 61 -20 65 33 102 l47 33 -59 5
c-63 5 -63 5 -93 79 l-18 44 -18 -56z"/>
<path d="M7870 3713 c-24 -74 -34 -83 -97 -83 l-56 0 47 -35 c25 -20 46 -41
46 -48 0 -7 -7 -33 -15 -59 -8 -27 -12 -48 -9 -48 3 0 25 14 49 30 24 17 47
30 51 30 3 0 29 -16 55 -35 27 -19 49 -34 49 -32 0 1 -7 24 -15 51 -8 27 -15
55 -15 62 0 7 21 29 46 49 48 36 47 39 -16 37 -56 -1 -66 6 -84 63 -9 30 -19
55 -21 55 -2 0 -9 -17 -15 -37z"/>
<path d="M8520 3700 c-14 -59 -28 -69 -92 -65 -27 2 -48 0 -48 -4 0 -4 20 -22
45 -40 25 -18 45 -36 45 -41 0 -5 -7 -28 -16 -49 -9 -22 -14 -45 -12 -50 1 -6
24 3 51 21 l47 31 54 -36 54 -36 -8 27 c-4 15 -13 39 -19 54 -14 37 -7 51 42
84 39 26 40 27 19 35 -12 5 -29 6 -37 3 -37 -15 -63 5 -80 61 -10 30 -21 55
-25 55 -5 0 -13 -23 -20 -50z"/>
<path d="M2903 3070 l-33 -20 31 -50 c17 -28 30 -53 28 -54 -2 -2 -42 -26 -89
-53 -330 -190 -390 -227 -390 -234 0 -20 52 -90 63 -86 10 4 579 332 615 354
9 6 8 15 -8 41 -17 27 -25 32 -59 32 -43 0 -95 35 -106 70 -8 25 -12 25 -52 0z"/>
<path d="M7672 3000 c-18 -11 -46 -41 -63 -67 -27 -42 -30 -55 -27 -106 4 -49
9 -62 38 -92 32 -33 290 -199 399 -257 113 -59 208 -20 257 107 21 56 9 108
-36 153 -29 30 -342 229 -412 264 -49 24 -115 23 -156 -2z m295 -215 c209
-131 228 -150 195 -194 -32 -43 -63 -33 -242 79 -216 134 -230 145 -230 177 0
37 29 66 60 61 14 -2 111 -58 217 -123z"/>
<path d="M3140 2718 c-43 -22 -300 -219 -368 -282 -46 -43 -62 -77 -62 -133 0
-71 64 -155 132 -174 68 -18 103 1 304 159 249 195 272 230 219 338 -48 99
-140 136 -225 92z m119 -112 c7 -8 11 -29 9 -47 -3 -29 -19 -45 -128 -132
-208 -164 -241 -187 -265 -187 -32 0 -55 25 -55 60 0 26 18 44 148 146 81 65
163 130 182 145 39 31 90 38 109 15z"/>
<path d="M7418 2656 c-16 -19 -28 -39 -28 -44 0 -11 545 -462 559 -462 5 0 24
18 41 40 l32 40 -29 24 c-210 176 -530 436 -538 436 -5 0 -22 -16 -37 -34z"/>
<path d="M7243 2443 c-35 -19 -173 -150 -173 -163 0 -13 492 -520 505 -520 6
0 26 16 45 35 l33 34 -109 117 -108 116 29 24 c49 39 72 32 151 -48 39 -40 83
-84 97 -97 l27 -25 40 39 40 39 -92 94 c-97 98 -159 137 -201 127 -21 -6 -23
-4 -19 29 5 46 -32 112 -91 159 -77 63 -116 71 -174 40z m126 -157 c28 -30 51
-63 51 -74 0 -10 -14 -31 -31 -48 l-31 -29 -69 75 -68 74 26 28 c39 41 63 36
122 -26z"/>
<path d="M3102 2056 c-62 -62 -112 -118 -112 -124 0 -5 8 -13 17 -16 12 -5 38
14 91 66 76 74 74 64 -10 -48 -36 -49 -43 -84 -15 -84 5 0 42 24 81 53 105 78
109 78 27 -6 -50 -51 -72 -80 -68 -91 4 -9 12 -16 19 -16 7 0 64 51 125 113
l112 112 -25 28 -24 28 -63 -49 c-34 -27 -75 -58 -92 -68 l-30 -19 37 50 c21
28 51 68 67 91 l30 41 -27 27 -28 26 -112 -114z"/>
<path d="M6837 2109 c-31 -22 -57 -45 -57 -50 0 -8 317 -648 326 -658 4 -4 84
49 84 56 0 2 -14 31 -30 64 -17 33 -28 64 -25 69 3 5 26 24 52 41 l45 31 52
-51 52 -52 42 31 c23 16 42 34 42 38 0 8 -512 522 -520 522 -3 0 -31 -18 -63
-41z m321 -369 c3 -8 -76 -65 -82 -59 -9 11 -156 297 -156 304 0 8 232 -231
238 -245z"/>
<path d="M4047 1893 c-123 -153 -397 -505 -397 -512 0 -4 20 -17 44 -28 l44
-22 42 55 c22 29 43 54 46 54 10 0 103 -50 108 -59 3 -4 -6 -37 -20 -71 -28
-69 -29 -65 37 -100 l36 -19 26 67 c14 37 46 123 71 192 24 69 69 194 100 279
30 85 53 158 50 162 -6 11 -109 69 -122 69 -5 0 -34 -30 -65 -67z m30 -160
c-38 -105 -99 -253 -103 -253 -15 0 -85 43 -82 50 5 15 203 278 206 275 2 -2
-8 -34 -21 -72z"/>
<path d="M3343 1864 c-37 -41 -77 -90 -88 -109 -19 -32 -19 -35 -3 -69 19 -38
50 -53 92 -42 14 3 56 45 100 97 85 102 93 129 50 173 -46 45 -73 36 -151 -50z
m123 12 c7 -19 0 -31 -71 -115 -33 -39 -68 -71 -78 -71 -34 0 -29 29 14 82 94
116 122 137 135 104z"/>
<path d="M6494 1902 c-56 -23 -78 -41 -104 -85 -27 -46 -23 -96 12 -165 33
-64 89 -104 194 -137 124 -39 160 -60 185 -112 24 -49 21 -65 -16 -89 -34 -22
-67 -8 -91 38 -9 18 -18 34 -19 36 -1 1 -23 -9 -48 -24 l-47 -26 16 -31 c45
-89 117 -127 197 -103 126 38 169 137 111 254 -40 80 -87 114 -219 156 -94 31
-119 43 -144 72 -39 44 -41 87 -6 110 34 22 56 15 84 -28 l23 -37 44 22 c24
11 44 25 44 29 0 35 -66 110 -113 127 -37 14 -54 13 -103 -7z"/>
<path d="M4298 1454 l-116 -346 34 -14 c18 -8 40 -14 47 -14 14 0 44 79 149
395 18 55 34 91 36 80 1 -11 -6 -132 -17 -270 -11 -137 -16 -253 -13 -256 8
-7 105 -40 107 -36 1 1 54 158 118 349 l115 347 -46 15 c-35 13 -47 13 -53 4
-4 -7 -36 -98 -70 -203 -34 -104 -64 -185 -66 -178 -2 6 3 96 11 198 22 256
27 230 -46 254 -34 12 -65 21 -68 21 -4 0 -59 -156 -122 -346z"/>
<path d="M6008 1698 c-49 -16 -88 -33 -88 -37 0 -5 49 -161 109 -347 103 -320
111 -339 133 -337 41 3 78 22 78 41 0 10 -20 77 -44 150 l-45 133 25 9 c41 16
72 12 88 -12 9 -12 32 -69 51 -127 46 -139 43 -135 91 -122 66 19 66 15 21
152 -47 140 -66 175 -105 191 -15 7 -29 13 -31 14 -1 2 4 13 13 26 35 50 2
199 -59 263 -30 33 -37 35 -91 34 -38 0 -91 -11 -146 -31z m176 -123 c10 -22
21 -61 24 -87 l5 -48 -44 -19 -44 -20 -32 97 c-18 53 -33 99 -33 103 0 11 30
17 70 16 30 -2 37 -7 54 -42z"/>
<path d="M4846 1528 c-15 -79 -38 -206 -51 -283 -13 -77 -31 -176 -39 -219 -9
-44 -14 -81 -13 -82 2 -2 28 -6 58 -10 l54 -6 24 138 c13 77 41 231 62 343 22
113 39 213 39 223 0 12 -11 19 -37 23 -21 4 -45 9 -54 11 -13 4 -21 -21 -43
-138z"/>
<path d="M5655 1631 l-130 -17 2 -29 c1 -29 85 -698 87 -702 1 0 69 7 151 18
83 10 151 19 153 19 2 0 2 21 0 48 -3 47 -3 47 -38 47 -19 -1 -65 -4 -101 -8
l-65 -8 -12 103 c-7 57 -12 108 -12 115 0 7 29 14 76 18 l76 8 -6 36 c-3 20
-6 44 -6 54 0 13 -6 16 -22 13 -13 -3 -48 -8 -79 -11 l-56 -6 -12 91 c-6 50
-9 95 -6 99 3 5 40 12 83 16 43 4 84 10 91 14 8 5 11 25 9 52 -4 54 -2 53
-183 30z"/>
<path d="M5080 1599 c0 -18 5 -83 10 -143 6 -61 19 -212 30 -335 11 -123 22
-226 24 -228 2 -3 38 -7 79 -10 l75 -6 7 44 c3 24 28 145 55 269 26 124 56
269 67 322 l19 96 -49 4 c-57 4 -57 3 -76 -107 -6 -38 -28 -155 -48 -259 -44
-224 -46 -222 -63 88 -6 116 -15 228 -19 251 l-6 40 -53 3 -52 3 0 -32z"/>
<path d="M8941 5004 c0 -11 3 -14 6 -6 3 7 2 16 -1 19 -3 4 -6 -2 -5 -13z"/>
<path d="M2201 2423 c267 -503 680 -964 1149 -1282 500 -340 1050 -542 1650
-606 179 -19 541 -19 726 0 822 87 1542 425 2138 1004 223 218 409 450 560
699 58 96 120 216 89 172 -10 -13 -55 -77 -101 -141 -623 -875 -1424 -1411
-2352 -1573 -505 -88 -966 -82 -1476 19 -302 60 -604 166 -879 309 -338 175
-594 364 -880 650 -228 228 -395 434 -580 714 -48 73 -89 132 -91 132 -3 0 18
-44 47 -97z"/>
</g>
</svg>
